<?xml version="1.0" encoding="UTF-8" standalone="no"?>
<!DOCTYPE svg PUBLIC "-//W3C//DTD SVG 20010904//EN"
              "http://www.w3.org/TR/2001/REC-SVG-20010904/DTD/svg10.dtd">

<svg xmlns="http://www.w3.org/2000/svg"
     width="8.33333in" height="8.33333in"
     viewBox="0 0 600 600">
  <path id="Zaznaczenie #1"
        fill="none" stroke="black" stroke-width="1"
        d="M 31.00,381.00
           C 31.00,381.00 57.00,377.17 57.00,377.17
             91.98,373.67 126.82,370.00 162.00,370.00
             162.00,370.00 124.00,402.08 124.00,402.08
             124.00,402.08 79.00,440.73 79.00,440.73
             79.00,440.73 44.00,471.02 44.00,471.02
             37.14,477.42 24.10,489.20 19.40,497.00
             17.23,500.81 15.30,508.02 19.40,511.40
             26.06,517.08 38.64,508.12 44.00,504.11
             44.00,504.11 102.00,453.73 102.00,453.73
             102.00,453.73 166.00,398.73 166.00,398.73
             166.00,398.73 188.00,379.73 188.00,379.73
             191.77,376.50 197.48,371.12 202.00,369.34
             204.67,368.29 222.34,367.05 226.00,367.00
             226.00,367.00 244.00,366.00 244.00,366.00
             244.00,366.00 257.00,366.00 257.00,366.00
             257.00,366.00 275.00,365.00 275.00,365.00
             275.00,365.00 291.00,364.00 291.00,364.00
             291.00,364.00 306.00,364.00 306.00,364.00
             306.00,364.00 321.00,363.00 321.00,363.00
             321.00,363.00 360.00,363.00 360.00,363.00
             360.00,363.00 317.00,416.00 317.00,416.00
             317.00,416.00 277.37,467.00 277.37,467.00
             271.07,475.44 263.56,483.97 264.04,495.00
             264.44,504.12 272.25,517.20 283.00,511.83
             289.00,508.83 305.38,489.13 310.93,483.00
             310.93,483.00 338.40,449.00 338.40,449.00
             338.40,449.00 381.58,395.00 381.58,395.00
             381.58,395.00 395.63,377.00 395.63,377.00
             398.55,373.13 402.65,367.37 407.00,365.17
             410.17,363.57 418.31,363.02 422.00,363.04
             422.00,363.04 435.00,363.04 435.00,363.04
             435.00,363.04 445.00,364.00 445.00,364.00
             449.56,364.05 458.00,364.52 461.89,362.43
             467.81,359.25 467.27,350.89 459.00,346.92
             451.55,343.35 430.89,344.00 422.00,344.00
             422.00,344.00 476.61,277.00 476.61,277.00
             476.61,277.00 553.60,182.00 553.60,182.00
             565.49,167.14 577.55,152.33 587.40,136.00
             592.96,126.78 597.87,119.14 598.00,108.00
             598.04,104.07 598.24,99.72 596.87,96.00
             591.75,82.12 572.56,86.72 562.00,90.81
             536.23,100.79 492.72,128.19 469.00,144.00
             398.12,191.25 328.91,240.44 261.00,291.87
             261.00,291.87 215.00,327.42 215.00,327.42
             209.09,332.04 193.93,345.30 188.00,347.39
             182.22,349.43 176.01,348.93 170.00,349.00
             170.00,349.00 160.00,349.91 160.00,349.91
             160.00,349.91 131.00,351.91 131.00,351.91
             131.00,351.91 108.00,353.00 108.00,353.00
             108.00,353.00 91.00,354.00 91.00,354.00
             91.00,354.00 56.00,356.83 56.00,356.83
             41.18,358.25 18.75,359.09 7.04,369.33
             5.08,371.04 3.66,372.71 2.41,375.00
             -7.88,393.84 16.71,398.98 30.00,399.00
             30.00,399.00 35.00,399.00 35.00,399.00
             35.00,399.00 48.00,400.00 48.00,400.00
             48.00,400.00 73.00,400.00 73.00,400.00
             73.00,400.00 89.00,399.00 89.00,399.00
             94.95,398.99 100.11,398.62 106.00,397.71
             108.68,397.29 114.71,396.00 116.68,394.28
             117.66,393.42 118.37,392.36 118.37,391.01
             118.37,386.50 111.99,387.01 109.00,387.00
             109.00,387.00 52.00,386.17 52.00,386.17
             44.93,385.49 36.73,385.89 31.00,381.00 Z
           M 559.00,115.00
           C 557.56,124.17 552.33,130.78 546.87,138.00
             546.87,138.00 520.00,171.00 520.00,171.00
             520.00,171.00 415.39,298.00 415.39,298.00
             415.39,298.00 389.75,329.00 389.75,329.00
             386.54,332.87 381.13,340.71 377.00,342.83
             373.57,344.58 364.99,344.99 361.00,345.00
             361.00,345.00 321.00,345.00 321.00,345.00
             321.00,345.00 304.00,346.00 304.00,346.00
             304.00,346.00 261.00,346.00 261.00,346.00
             261.00,346.00 245.00,347.00 245.00,347.00
             245.00,347.00 229.00,347.00 229.00,347.00
             234.76,340.47 246.68,332.61 254.00,327.13
             254.00,327.13 304.00,290.13 304.00,290.13
             304.00,290.13 467.00,171.14 467.00,171.14
             467.00,171.14 526.00,131.00 526.00,131.00
             535.45,124.67 547.36,115.57 559.00,115.00 Z" />
</svg>
