<svg xmlns="http://www.w3.org/2000/svg" viewBox="0 0 6.35 6.35"><defs/><path fill="#fff" d="M.708.181h4.9602v5.9496H.708z" paint-order="markers stroke fill"/><g fill="none" stroke="#6170af"><path stroke-width=".092754741" d="M1.8094 1.497s.0668.0004.0964-.0127c.162-.0718.2256-.3433.4052-.3443.1796-.001.2818.2681.4197.3487.0287.0167.0743.017.0743.017"/><path stroke-width=".092754741" d="M2.8064 1.2461s-.0384-.0001-.0745.0133c-.166.0619-.2256.3433-.4052.3443-.1795.001-.274-.2397-.4197-.3487-.0219-.0164-.0962-.0166-.0962-.0166"/><path stroke-width=".06876689400000001" d="M2.3277 1.6044l.0025-.4649M2.211 1.5613l.002-.3844M2.4442 1.5625l.002-.3844M1.8808 1.4881l.0014-.2613M2.7353 1.5045l.0014-.2613"/><g><path stroke-width=".092754741" d="M2.7874 1.5046s.0668.0005.0965-.0126c.162-.0718.2256-.3433.4051-.3443.1796-.001.2819.2681.4197.3487.0287.0167.0743.017.0743.017"/><path stroke-width=".092754741" d="M3.7844 1.2538s-.0384-.0001-.0744.0133c-.1661.0619-.2257.3433-.4052.3443-.1796.001-.274-.2397-.4197-.3487-.022-.0164-.0963-.0166-.0963-.0166"/><path stroke-width=".06876689400000001" d="M3.3057 1.6121l.0025-.4649M3.189 1.569l.002-.3844M3.4222 1.5702l.002-.3844M2.8589 1.4958l.0014-.2613M3.7134 1.5122l.0014-.2613"/></g><g><path stroke-width=".092754741" d="M3.7696 1.5123s.0668.0005.0964-.0126c.162-.0718.2257-.3433.4052-.3443.1796-.001.2819.2681.4197.3487.0287.0167.0743.017.0743.017"/><path stroke-width=".092754741" d="M4.7666 1.2615s-.0384-.0001-.0745.0133c-.166.0619-.2256.3433-.4051.3443-.1796.001-.2741-.2397-.4198-.3487-.0219-.0164-.0962-.0166-.0962-.0166"/><path stroke-width=".06876689400000001" d="M4.288 1.6198l.0024-.4649M4.1712 1.5767l.002-.3844M4.4044 1.578l.002-.3845M3.841 1.5035l.0015-.2613M4.6955 1.5199l.0014-.2613"/></g></g><g color="#000" font-family="sans-serif" font-weight="400"><path d="M.8272.0379C.654.0378.5135.173.5136.3399v5.6684c0 .1669.1404.3022.3136.3021h4.696c.1732.0001.3136-.1352.3135-.302V.34C5.8368.173 5.6964.0378 5.5232.0379zM.8149.344h4.7128v5.6666H.8149z" overflow="visible" paint-order="markers fill stroke" /><path d="M1.725.7354a.198.1908 0 00-.198.1907v.9014a.198.1908 0 00.198.1906h2.93a.198.1908 0 00.198-.1906V.926a.198.1908 0 00-.198-.1907zm.1978.3814h2.5344v.52H1.9228z" overflow="visible" paint-order="markers fill stroke"/><path d="M1.725 2.306a.1219.1174 0 00-.1235.1188v.6315a.1219.1174 0 00.1234.1164h.7069a.1219.1174 0 00.1233-.1164v-.6315a.1219.1174 0 00-.1233-.1188zm.1207.2352h.4652v.3962h-.4652zM4.0813 2.3052a.1219.1174 0 00-.1234.1189v.6314a.1219.1174 0 00.1234.1164h.7068a.1219.1174 0 00.1234-.1164v-.6314a.1219.1174 0 00-.1234-.1189zm.1208.2353h.4652v.3962h-.4652zM2.8865 2.3052a.1219.1174 0 00-.1233.1189v.6314a.1219.1174 0 00.1233.1164h.7069a.1219.1174 0 00.1233-.1164v-.6314a.1219.1174 0 00-.1233-.1189zm.1208.2353h.4653v.3962h-.4653zM1.725 3.4647a.1219.1174 0 00-.1235.1189v.6314a.1219.1174 0 00.1234.1164h.7069a.1219.1174 0 00.1233-.1164v-.6314a.1219.1174 0 00-.1233-.119zm.1207.2352h.4652v.3963h-.4652zM2.8865 3.464a.1219.1174 0 00-.1233.1188v.6315a.1219.1174 0 00.1233.1164h.7069a.1219.1174 0 00.1233-.1164v-.6315a.1219.1174 0 00-.1233-.1189zm.1208.2352h.4653v.3962h-.4653zM1.725 4.621a.1219.1174 0 00-.1235.1188v.6315a.1219.1174 0 00.1234.1164h.7069a.1219.1174 0 00.1233-.1164v-.6315a.1219.1174 0 00-.1233-.1188zm.1207.2352h.4652v.3962h-.4652zM2.8865 4.6202a.1219.1174 0 00-.1233.1189v.6314a.1219.1174 0 00.1233.1164h.7069a.1219.1174 0 00.1233-.1164v-.6314a.1219.1174 0 00-.1233-.1189zm.1208.2353h.4653v.3962h-.4653zM4.1144 3.4653a.1553.1496 0 00-.1568.151v1.7211a.1553.1496 0 00.1568.1486h.6425a.1553.1496 0 00.1568-.1486v-1.721a.1553.1496 0 00-.1568-.151zm.1542.2997h.3341v1.4214h-.3341z" overflow="visible" paint-order="markers stroke fill"/></g></svg>