<svg xmlns="http://www.w3.org/2000/svg" viewBox="0 0 6.35 6.35"><defs/><g transform="matrix(2.1462 0 0 2.1462 -3.5878 -3.763)"><path d="M3.3524 3.3896c.114.0637.231.1165.399-.001l.0233.001s.2903.8532.6947.7487c.305-.0788.084-1.0918.084-1.0918s-.052-.7334-.6029-.6981c-.1849.0118-.292.1371-.292.1371H2.644s-.1072-.1253-.2921-.1371c-.5508-.0353-.6028.6981-.6028.6981s-.221 1.013.084 1.0918c.4043.1045.6946-.7487.6946-.7487l.0233-.001c.168.1175.285.0647.399.001"/><path fill="none" stroke="#fff" stroke-linejoin="round" stroke-width=".0302" d="M3.608 2.4872l.002.3688c.0003.046-.0271.1009-.1266.103-.224.0037-.4252.0009-.652 0-.0995-.002-.1263-.057-.1266-.103l-.002-.3688"/><circle cx="3.5495" cy="3.2138" r=".1374" fill="#fff" paint-order="markers fill stroke"/><circle cx="2.7514" cy="3.2138" r=".1374" fill="#fff" paint-order="markers fill stroke"/><g fill="#fff" paint-order="markers fill stroke"><path d="M2.313 2.6247s-.0261.0666-.0549.0667c-.0288 0-.0554-.0663-.0554-.0663l-.0001-.1033.1103-.0003zM2.2026 2.8684s.0262-.0665.055-.0666c.0287-.0001.0553.0662.0553.0662l.0001.1034-.1102.0002zM2.3797 2.8018s-.0666-.0262-.0667-.055c0-.0287.0663-.0553.0663-.0553l.1033-.0001.0003.1102zM2.136 2.6914s.0665.0261.0666.0549c.0001.0288-.0662.0554-.0662.0554H2.033l-.0002-.1102z"/></g><g fill="#fff" paint-order="markers fill stroke" transform="translate(-.1927 .0735)"><circle cx="4.2115" cy="2.4992" r=".0869"/><circle cx="4.0377" cy="2.673" r=".0869"/><circle cx="4.3853" cy="2.673" r=".0869"/><circle cx="4.2115" cy="2.8468" r=".0869"/></g></g></svg>