<svg xmlns="http://www.w3.org/2000/svg" viewBox="0 0 6.35 6.35"><defs /><g fill="#c00" stroke="none" stroke-width=".1003" color="#000" paint-order="markers fill stroke"><path d="M6.2986 3.1733c.017 1.232-.7771 2.4147-1.9084 2.8773-1.1389.496-2.5555.2233-3.4257-.6692C.1037 4.544-.1879 3.184.2523 2.0639.6818.897 1.8573.066 3.0933.0517 4.3191.003 5.5264.7589 6.0226 1.8882c.1823.4019.2765.8434.276 1.2851z" overflow="visible" /><path fill="#000" d="M3.173-.0005C1.9287-.0178.724.7808.249 1.9385c-.4885 1.121-.2431 2.514.6008 3.396.8332.9173 2.2185 1.2538 3.3782.8319 1.1858-.4018 2.069-1.568 2.1166-2.8296.0793-1.226-.6346-2.4467-1.7262-2.99A3.1644 3.1644 0 003.173-.0004zm0 .1025C4.391.0847 5.57.8733 6.0215 2.0123c.4655 1.1027.1993 2.4648-.6476 3.3072-.8462.888-2.2365 1.1725-3.363.6987C.893 5.5773.0984 4.4243.0997 3.2133.0677 2.0141.817.8505 1.9077.3733A3.0693 3.0693 0 013.173.102z" overflow="visible" /></g><g fill="#fff" stroke="none" stroke-width=".1003" color="#000" paint-order="markers fill stroke"><path d="M6.2998 3.2219c.0123 1.4374-1.1344 2.7547-2.5463 3.0199-1.21.2535-2.508-.3359-3.1807-1.3494-.334-.49-.5258-1.0777-.5244-1.6705h6.2514z" overflow="visible" /><path fill="#000" d="M-.0012 3.1729C-.0362 4.57 1.0092 5.8763 2.357 6.2359c1.1311.3286 2.4067-.0865 3.1774-.9571.5206-.57.8303-1.3336.8151-2.106H-.0012zm.1203.0985h6.11c-.016 1.4297-1.1829 2.733-2.6036 2.9436-1.207.2041-2.4656-.4423-3.076-1.479C.2828 4.2951.1287 3.7863.119 3.2714z" overflow="visible" /></g><path d="M.0543 2.7941l.0064.76 6.2215-.0021-.0078-.76-6.22.0021z" color="#000" font-family="sans-serif" font-weight="400" overflow="visible" paint-order="markers fill stroke" /><path d="M3.1739 1.9c-.7283-.022-1.3628.6808-1.2666 1.4031.053.7257.8145 1.285 1.523 1.1172.716-.126 1.1961-.9376.9594-1.6257-.1559-.5219-.6704-.9025-1.2158-.8946z" color="#000" font-family="sans-serif" font-weight="400" overflow="visible" paint-order="markers fill stroke" /><path fill="#fff" d="M3.1742 2.4453c-.501-.0206-.8834.5592-.671 1.0116.1748.4666.849.599 1.1858.2315.3675-.337.2351-1.0111-.2315-1.1858a.7252.7252 0 00-.2833-.0573z" color="#000" font-family="sans-serif" font-weight="400" overflow="visible" paint-order="markers fill stroke" /><path fill="#fff" d="M3.7548.4068c-.1704.2782-.7214.3013-.9033.3207-.2361.025-.415.3406-.4329.5965-.013.186.1163.3567.2211.3744l.1292-.1017c.3304.0524 1.3063.2561 1.2226-.7396C3.9758.6638 3.941.4713 3.8566.2808z" /><path fill="#77bc1f" d="M3.8557.2114a.8092.8092 0 01-.0936.1661.8799.8799 0 00-.6218-.2574C2.6579.12 2.261.5172 2.261 1c0 .2408.0987.4714.2732.6375l.0324.0288a.8795.8795 0 00.5664.207c.4585 0 .844-.3593.8767-.8171.024-.2242-.0418-.5077-.154-.8448zM2.6591 1.6426a.0752.0752 0 11-.1169-.0948.0752.0752 0 01.1169.0947zm1.193-.2635c-.217.2892-.6803.1918-.9774.2057 0 0-.0528.0032-.1058.0119 0 0 .0199-.0085.0457-.0183.2085-.0726.3072-.0867.434-.1518.2386-.1214.4745-.3871.5236-.6635-.091.2659-.3663.4944-.6173.5873-.172.0634-.4826.125-.4826.125l-.0125-.0066c-.2115-.1029-.2179-.561.1665-.709.1683-.0648.3293-.0291.511-.0725.1942-.0461.4187-.1918.51-.3817.1023.3038.2254.7795.0048 1.0735z" /></svg>