<svg xmlns="http://www.w3.org/2000/svg" viewBox="0 0 6.35 6.35"><defs /><path fill="#fff" d="M1.0875.877c1.446-.7307 2.8915-.864 4.3358.2397C6.4818 2.595 6.445 3.8872 5.5694 5.037c-2.1568 1.7607-3.3987.8477-4.6603-.0075C-.1426 3.8485.1824 2.4158 1.0875.877z" paint-order="markers stroke fill" /><g fill="none" stroke="#000" stroke-width=".4763"><path stroke-linejoin="round" d="M.909 5.0295c.537.6551 1.3527 1.0731 2.2659 1.0731.9064 0 1.7166-.4118 2.2538-1.0585C3.3182 3.6083 2.8259 3.9269.909 5.0295a2.9158 2.9158 0 01-.6624-1.8548c0-1.617 1.311-2.928 2.9282-2.928s2.9282 1.311 2.9282 2.928a2.916 2.916 0 01-.6744 1.8694" paint-order="markers fill stroke" /><path d="M3.1749 6.2208V.1286M.1288 3.1747H6.221M3.1749 6.041C.8715 4.0062.8868 2.3352 3.1749.3084M3.1749.3085c2.3033 2.0345 2.2881 3.7056 0 5.7324M5.4187 1.2932C3.502 2.3958 3.0398 2.7301.9293 1.2942" /></g><g paint-order="markers fill stroke"><path fill="gray" stroke="#000" stroke-linejoin="round" stroke-width=".0386451" d="M3.7782 4.4792L1.8796 2.7656C3.2878 1.89 4.02 1.7191 4.3132 1.9757c.375.3284.0314 1.3563-.535 2.5035z" color="#000" font-family="sans-serif" font-weight="400" overflow="visible" /><g transform="matrix(1.1034 .99586 -.99586 1.1034 3.8449 -4.5567)"><path fill="#5a3c3c" stroke="#000" stroke-linejoin="round" stroke-width=".026" d="M3.5212 1.9604c-.0605-.1094-.2257-.1549-.3417-.1545v0c-.116-.0004-.2527.05-.3053.1539-.1288.2541.127 1.146.127 1.146h0c.1114-.0502.2367-.0583.364 0 0 0 .2614-.9547.156-1.1454zm-.3417-.0257c-.0424 0-.0901.032-.09.0899 0 .0424.031.0891.09.09.0424 0 .0901-.0332.09-.09-.0014-.06-.0476-.09-.09-.09z" /><circle cx="3.1795" cy="2.0246" r=".0899" /></g></g></svg>